<?xml version="1.0" encoding="UTF-8" standalone="no"?>
<svg
   xmlns:dc="http://purl.org/dc/elements/1.1/"
   xmlns:cc="http://creativecommons.org/ns#"
   xmlns:rdf="http://www.w3.org/1999/02/22-rdf-syntax-ns#"
   xmlns:svg="http://www.w3.org/2000/svg"
   xmlns="http://www.w3.org/2000/svg"
   height="3.75px"
   width="15.55px"
   id="svg2"
   version="1.1">
  <metadata
     id="metadata21">
    <rdf:RDF>
      <cc:Work
         rdf:about="">
        <dc:format>image/svg+xml</dc:format>
        <dc:type
           rdf:resource="http://purl.org/dc/dcmitype/StillImage" />
        <dc:title></dc:title>
      </cc:Work>
    </rdf:RDF>
  </metadata>
  <path
     d="M 9.9755942,-1.3537301 L 10.975594,-1.3537301 C 11.175594,-2.0203968 11.475594,-2.3703968 11.875594,-2.4037301 C 12.275594,-2.4703968 12.325594,-2.1037301 12.025594,-1.3037301 L 12.875594,-1.3537301 C 13.275594,-1.3870634 13.608927,-1.2703968 13.875594,-1.0037302 C 14.108927,-0.73706352 14.225594,-0.40373018 14.225594,-0.00373018 C 14.194875,0.36860851 14.138888,0.49627009 14.025594,0.74626982 C 13.982833,0.82741538 13.928317,0.88504883 13.875594,0.94626983 C 13.742261,1.0796032 13.475594,1.2129366 13.075594,1.3462699 L 9.9755942,1.3462699 L 0.02559374,1.3462699 L 0.02559374,-1.3537301 L 9.9755942,-1.3537301"
     id="path15"
     style="fill:#ffffff;fill-opacity:1;fill-rule:nonzero;stroke:#000000;stroke-width:0.1;stroke-linecap:round;stroke-linejoin:round;stroke-miterlimit:4;stroke-dasharray:none" />
  <path
     d="M 9.9755942,1.3462699 L 0.02559374,1.3462699 L 0.02637494,1.3462699 C 0.02637494,0.7767484 0.02559374,-0.5923496 0.02559374,-1.3537301 L 9.9755942,-1.3537301 L 9.9755942,1.3462699 M 1.4081948,-0.00633452 A 1.3611166,1.3971287 0 0 1 0.04707824,1.3907943 A 1.3611166,1.3971287 0 0 1 -1.3140385,-0.00633442 A 1.3611166,1.3971287 0 0 1 0.04707824,-1.4034631 A 1.3611166,1.3971287 0 0 1 1.4081948,-0.00633452 Z"
     style="fill:#000000;fill-rule:nonzero;stroke:none"
     id="path13" />
</svg>
