<?xml version="1.0" encoding="UTF-8" standalone="no"?>
<svg
   xmlns:dc="http://purl.org/dc/elements/1.1/"
   xmlns:cc="http://creativecommons.org/ns#"
   xmlns:rdf="http://www.w3.org/1999/02/22-rdf-syntax-ns#"
   xmlns:svg="http://www.w3.org/2000/svg"
   xmlns="http://www.w3.org/2000/svg"
   height="13.330042"
   width="27.888464"
   version="1.1"
   id="svg2">
  <defs
     id="defs21" />
  <metadata
     id="metadata40">
    <rdf:RDF>
      <cc:Work
         rdf:about="">
        <dc:format>image/svg+xml</dc:format>
        <dc:type
           rdf:resource="http://purl.org/dc/dcmitype/StillImage" />
        <dc:title></dc:title>
      </cc:Work>
    </rdf:RDF>
  </metadata>
  <path
     d="m 14.400122,10.8521 h -14.3 L 0.1,2.0521 h 14.3"
     id="path4"
     style="fill:#ffffff;stroke:#000000;stroke-width:0.2;stroke-linejoin:round;stroke-miterlimit:4;stroke-dasharray:none" />
  <path
     d="m 19.308872,5.859805 v 6 l -0.9,0.5 -1.1,0.5 -0.6,0.2 -0.572656,0.123438 c -0.276378,0.05476 -0.476337,0.06983 -0.778125,0.0039 -0.238562,-0.03971 -0.382759,-0.124565 -0.5,-0.2 -0.114704,-0.06895 -0.147057,-0.112629 -0.349219,-0.327344 -0.133948,-0.271542 -0.152719,-0.339323 -0.2,-0.5 l -0.1,-0.3 -0.1,-0.6 V 5.8598088"
     id="path6"
     style="fill:#ffffff;stroke:#000000;stroke-width:0.2;stroke-linejoin:round;stroke-miterlimit:4;stroke-dasharray:none" />
  <path
     d="m 14.452122,3.2509 h -4 V 1.3 h 4"
     id="path8"
     style="fill:#d10101;stroke-width:0.1" />
  <path
     d="m 14.452122,7.3061 h -4 v -2 l 4,4e-5"
     id="path10"
     style="fill:#d10101;stroke-width:0.1" />
  <path
     d="m 14.452122,11.3 h -4 v -2 h 4"
     id="path12"
     style="fill:#d10101;stroke-width:0.1" />
  <path
     d="m 21.209153,1.0882813 0.9,0.3078125 L 22.952122,1.9 l 0.8,0.6 0.6,0.7 0.5,0.8 0.3,0.8 0.2,0.8 v 0.8 l -0.1,0.8 -0.1,0.7 L 25.013059,8.4390625 24.740403,9.053125 24.352122,9.6 l -0.4,0.5 -0.507813,0.472656 -0.492187,0.327344 -0.6,0.3 -0.566291,0.26133 L 21.252122,11.6"
     id="path14"
     style="fill:#ffffff;fill-opacity:1;stroke:#000000;stroke-width:0.2;stroke-linejoin:round;stroke-miterlimit:4;stroke-dasharray:none" />
  <path
     d="m 19.352122,5.9 h -4.9 V 1.5 h 4.9"
     id="path16"
     style="stroke-width:0.1" />
  <path
     d="m 21.252122,0.9 v 10.9 l -0.1,0.4 -0.3,0.3 -0.3,0.1 h -0.5 l -0.3,-0.1 -0.3,-0.3 -0.1,-0.2 V 0.9 0.6 l 0.1,-0.2 0.3,-0.3 0.3,-0.1 h 0.5 l 0.3,0.1 0.3,0.3 0.1,0.4"
     id="path18"
     style="stroke-width:0.1" />
  <path
     d="m 10.452122,10.8 h -10.3 V 2 h 10.3"
     id="path20"
     style="color:#000000;fill:none;stroke-width:0.1" />
  <path
     d="m 21.252122,1.1 0.9,0.3 0.8,0.5 0.8,0.6 0.6,0.7 0.5,0.8 0.3,0.8 0.2,0.8 v 0.8 l -0.1,0.8 -0.1,0.7 -0.1,0.5 -0.3,0.7 -0.4,0.5 -0.4,0.5 -0.5,0.5 -0.5,0.3 -0.6,0.3 -0.5,0.3 -0.6,0.1"
     id="path22"
     style="color:#000000;fill:none;stroke-width:0.1" />
  <path
     d="m 19.352122,11.9 -0.9,0.5 -1.1,0.5 -0.6,0.2 -0.6,0.1 h -0.7 l -0.5,-0.2 -0.4,-0.3 -0.2,-0.5 -0.1,-0.3 -0.1,-0.6"
     id="path26"
     style="color:#000000;fill:none;stroke-width:0.1" />
  <path
     d="m 14.452122,5.30661 h -4 v -2.0602 h 4"
     id="path32"
     style="fill:#ff6464;stroke-width:0.1" />
  <path
     d="m 14.452122,9.306 h -4 V 7.301 h 4"
     id="path34"
     style="fill:#ff6464;stroke-width:0.1" />
  <path
     id="path4157"
     d="M 17.817461,9.4261456 A 0.7236743,0.7236743 0 0 1 17.093786,10.14982 0.7236743,0.7236743 0 0 1 16.370111,9.4261456 0.7236743,0.7236743 0 0 1 17.093786,8.7024713 0.7236743,0.7236743 0 0 1 17.817461,9.4261456 Z"
     style="fill:#000000;fill-opacity:1;fill-rule:nonzero;stroke:#000000;stroke-width:0.08598128;stroke-linecap:square;stroke-linejoin:round;stroke-miterlimit:4;stroke-dasharray:none;stroke-opacity:1" />
  <path
     style="fill:#000000;fill-opacity:1;fill-rule:nonzero;stroke:none;stroke-width:0.098;stroke-linecap:square;stroke-linejoin:round;stroke-miterlimit:4;stroke-dasharray:none;stroke-opacity:1"
     d="M 27.888464,6.2823408 A 1.3436832,1.3436832 0 0 1 26.544781,7.6260241 1.3436832,1.3436832 0 0 1 25.201097,6.2823408 1.3436832,1.3436832 0 0 1 26.544781,4.9386576 1.3436832,1.3436832 0 0 1 27.888464,6.2823408 Z"
     id="path4162" />
</svg>
