<?xml version="1.0" encoding="UTF-8" standalone="no"?>
<svg
   xmlns:dc="http://purl.org/dc/elements/1.1/"
   xmlns:cc="http://creativecommons.org/ns#"
   xmlns:rdf="http://www.w3.org/1999/02/22-rdf-syntax-ns#"
   xmlns:svg="http://www.w3.org/2000/svg"
   xmlns="http://www.w3.org/2000/svg"
   id="svg2"
   version="1.1"
   width="35.75px"
   height="14.8px">
  <defs
     id="defs21" />
  <metadata
     id="metadata40">
    <rdf:RDF>
      <cc:Work
         rdf:about="">
        <dc:format>image/svg+xml</dc:format>
        <dc:type
           rdf:resource="http://purl.org/dc/dcmitype/StillImage" />
        <dc:title></dc:title>
      </cc:Work>
    </rdf:RDF>
  </metadata>
  <path
     style="fill:#ffffff;stroke:#000000;stroke-width:0.1;stroke-linejoin:round"
     id="path4"
     d="M 14.348,4.5521 L 0.048,4.5521 L 0.047878,-4.2479 L 14.347878,-4.2479" />
  <path
     style="fill:#ffffff;stroke:#000000;stroke-width:0.1;stroke-linejoin:round"
     id="path6"
     d="M 19.25675,-0.440195 L 19.25675,5.559805 L 18.35675,6.059805 L 17.25675,6.559805 L 16.65675,6.759805 L 16.084094,6.8832425 C 15.807716,6.9380052 15.607757,6.9530671 15.305969,6.8871487 C 15.067407,6.8474429 14.92321,6.7625843 14.805969,6.6871488 C 14.691265,6.6181977 14.658912,6.5745198 14.45675,6.359805 C 14.322802,6.0882633 14.304031,6.0204817 14.25675,5.859805 L 14.15675,5.559805 L 14.05675,4.959805 L 14.05675,-0.440195" />
  <path
     style="fill:#d10101;stroke-width:0.1"
     id="path8"
     d="M 14.4,-3.0491 L 10.4,-3.0491 L 10.4,-5 L 14.4,-5" />
  <path
     style="fill:#d10101;stroke-width:0.1"
     id="path10"
     d="M 14.4,1.0061 L 10.4,1.0061 L 10.4,-0.9939 L 14.4,-0.99386" />
  <path
     style="fill:#d10101;stroke-width:0.1"
     id="path12"
     d="M 14.4,5 L 10.4,5 L 10.4,3 L 14.4,3" />
  <path
     style="fill:#ffffff;fill-opacity:1;stroke:#000000;stroke-width:0.1;stroke-linejoin:round"
     id="path14"
     d="M 21.157031,-5.2117187 L 22.057031,-4.9039062 L 22.9,-4.4 L 23.7,-3.8 L 24.3,-3.1 L 24.8,-2.3 L 25.1,-1.5 L 25.3,-0.7 L 25.3,0.1 L 25.2,0.9 L 25.1,1.6 L 24.960937,2.1390625 L 24.688281,2.753125 L 24.3,3.3 L 23.9,3.8 L 23.392187,4.2726563 L 22.9,4.6 L 22.3,4.9 L 21.733709,5.1613301 L 21.2,5.3" />
  <path
     style="stroke-width:0.1"
     id="path16"
     d="M 19.3,-0.4 L 14.4,-0.4 L 14.4,-4.8 L 19.3,-4.8" />
  <path
     style="stroke-width:0.1"
     id="path18"
     d="M 21.2,-5.4 L 21.2,5.5 L 21.1,5.9 L 20.8,6.2 L 20.5,6.3 L 20,6.3 L 19.7,6.2 L 19.4,5.9 L 19.3,5.7 L 19.3,-5.4 L 19.3,-5.7 L 19.4,-5.9 L 19.7,-6.2 L 20,-6.3 L 20.5,-6.3 L 20.8,-6.2 L 21.1,-5.9 L 21.2,-5.5" />
  <path
     style="color:#000000;fill:none;stroke-width:0.1"
     id="path20"
     d="M 10.4,4.5 L 0.1,4.5 L 0.1,-4.3 L 10.4,-4.3" />
  <path
     style="color:#000000;fill:none;stroke-width:0.1"
     id="path22"
     d="M 21.2,-5.2 L 22.1,-4.9 L 22.9,-4.4 L 23.7,-3.8 L 24.3,-3.1 L 24.8,-2.3 L 25.1,-1.5 L 25.3,-0.7 L 25.3,0.1 L 25.2,0.9 L 25.1,1.6 L 25,2.1 L 24.7,2.8 L 24.3,3.3 L 23.9,3.8 L 23.4,4.3 L 22.9,4.6 L 22.3,4.9 L 21.8,5.2 L 21.2,5.3" />
  <path
     style="color:#000000;fill:none;stroke-width:0.1"
     id="path26"
     d="M 19.3,5.6 L 18.4,6.1 L 17.3,6.6 L 16.7,6.8 L 16.1,6.9 L 15.4,6.9 L 14.9,6.7 L 14.5,6.4 L 14.3,5.9 L 14.2,5.6 L 14.1,5" />
  <path
     style="fill:#ff6464;stroke-width:0.1"
     id="path32"
     d="M 14.4,-0.99339 L 10.4,-0.99339 L 10.4,-3.05359 L 14.4,-3.05359" />
  <path
     style="fill:#ff6464;stroke-width:0.1"
     id="path34"
     d="M 14.4,3.006 L 10.4,3.006 L 10.4,1.001 L 14.4,1.001" />
  <path
     style="fill:#000000;fill-opacity:1;fill-rule:nonzero;stroke:#000000;stroke-width:0.08598128;stroke-linecap:square;stroke-linejoin:round;stroke-miterlimit:4;stroke-dasharray:none;stroke-opacity:1"
     d="M 17.765339,3.1261456 A 0.7236743,0.7236743 0 0 1 17.041664,3.8498199 A 0.7236743,0.7236743 0 0 1 16.317989,3.1261456 A 0.7236743,0.7236743 0 0 1 17.041664,2.4024713 A 0.7236743,0.7236743 0 0 1 17.765339,3.1261456 Z"
     id="path4157" />
  <path
     id="path4162"
     d="M 27.836342,-0.01765918 A 1.3436832,1.3436832 0 0 1 26.492659,1.3260241 A 1.3436832,1.3436832 0 0 1 25.148975,-0.01765918 A 1.3436832,1.3436832 0 0 1 26.492659,-1.3613424 A 1.3436832,1.3436832 0 0 1 27.836342,-0.01765918 Z"
     style="fill:#000000;fill-opacity:1;fill-rule:nonzero;stroke:none;stroke-width:0.098;stroke-linecap:square;stroke-linejoin:round;stroke-miterlimit:4;stroke-dasharray:none;stroke-opacity:1" />
</svg>
