<?xml version="1.0" encoding="UTF-8" standalone="no"?>
<svg
   xmlns:dc="http://purl.org/dc/elements/1.1/"
   xmlns:cc="http://creativecommons.org/ns#"
   xmlns:rdf="http://www.w3.org/1999/02/22-rdf-syntax-ns#"
   xmlns:svg="http://www.w3.org/2000/svg"
   xmlns="http://www.w3.org/2000/svg"
   id="svg2"
   version="1.1"
   width="35.75px"
   height="14.8px">
  <metadata
     id="metadata40">
    <rdf:RDF>
      <cc:Work
         rdf:about="">
        <dc:format>image/svg+xml</dc:format>
        <dc:type
           rdf:resource="http://purl.org/dc/dcmitype/StillImage" />
        <dc:title></dc:title>
      </cc:Work>
    </rdf:RDF>
  </metadata>
  <path
     style="fill:#ffffff;stroke:#000000;stroke-width:0.1;stroke-linejoin:round"
     id="path4"
     d="M 14.348,4.5521 L 0.048,4.5521 L 0.047878,-4.2479 L 14.347878,-4.2479" />
  <path
     style="fill:#ffffff;stroke:#000000;stroke-width:0.1;stroke-linejoin:round"
     id="path6"
     d="M 19.288,-0.42457 L 19.288,5.57543 L 18.388,6.07543 L 17.288,6.57543 L 16.688,6.77543 L 16.115344,6.8988675 C 15.838966,6.9536302 15.639007,6.9686921 15.337219,6.9027737 C 15.098657,6.8630679 14.95446,6.7782093 14.837219,6.7027738 C 14.722515,6.6338227 14.690162,6.5901448 14.488,6.37543 C 14.354052,6.1038883 14.335281,6.0361067 14.288,5.87543 L 14.188,5.57543 L 14.088,4.97543 L 14.088,-0.42457" />
  <path
     style="fill:#d10101;stroke-width:0.1"
     id="path8"
     d="M 14.4,-3.0491 L 10.4,-3.0491 L 10.4,-5 L 14.4,-5" />
  <path
     style="fill:#d10101;stroke-width:0.1"
     id="path10"
     d="M 14.4,1.0061 L 10.4,1.0061 L 10.4,-0.9939 L 14.4,-0.99386" />
  <path
     style="fill:#d10101;stroke-width:0.1"
     id="path12"
     d="M 14.4,5 L 10.4,5 L 10.4,3 L 14.4,3" />
  <path
     style="fill:#ffffff;fill-opacity:1;stroke:#000000;stroke-width:0.1;stroke-linejoin:round"
     id="path14"
     d="M 21.157031,-5.2117187 L 22.057031,-4.9039062 L 22.9,-4.4 L 23.7,-3.8 L 24.3,-3.1 L 24.8,-2.3 L 25.1,-1.5 L 25.3,-0.7 L 25.3,0.1 L 25.2,0.9 L 25.1,1.6 L 24.960937,2.1390625 L 24.688281,2.753125 L 24.3,3.3 L 23.9,3.8 L 23.392187,4.2726563 L 22.9,4.6 L 22.3,4.9 L 21.733709,5.1613301 L 21.2,5.3" />
  <path
     style="stroke-width:0.1"
     id="path16"
     d="M 19.3,-0.4 L 14.4,-0.4 L 14.4,-4.8 L 19.3,-4.8" />
  <path
     style="stroke-width:0.1"
     id="path18"
     d="M 21.2,-5.4 L 21.2,5.5 L 21.1,5.9 L 20.8,6.2 L 20.5,6.3 L 20,6.3 L 19.7,6.2 L 19.4,5.9 L 19.3,5.7 L 19.3,-5.4 L 19.3,-5.7 L 19.4,-5.9 L 19.7,-6.2 L 20,-6.3 L 20.5,-6.3 L 20.8,-6.2 L 21.1,-5.9 L 21.2,-5.5" />
  <path
     style="color:#000000;fill:none;stroke-width:0.1"
     id="path20"
     d="M 10.4,4.5 L 0.1,4.5 L 0.1,-4.3 L 10.4,-4.3" />
  <path
     style="color:#000000;fill:none;stroke-width:0.1"
     id="path22"
     d="M 21.2,-5.2 L 22.1,-4.9 L 22.9,-4.4 L 23.7,-3.8 L 24.3,-3.1 L 24.8,-2.3 L 25.1,-1.5 L 25.3,-0.7 L 25.3,0.1 L 25.2,0.9 L 25.1,1.6 L 25,2.1 L 24.7,2.8 L 24.3,3.3 L 23.9,3.8 L 23.4,4.3 L 22.9,4.6 L 22.3,4.9 L 21.8,5.2 L 21.2,5.3" />
  <path
     style="color:#000000;fill:none;stroke-width:0.1"
     id="path26"
     d="M 19.3,5.6 L 18.4,6.1 L 17.3,6.6 L 16.7,6.8 L 16.1,6.9 L 15.4,6.9 L 14.9,6.7 L 14.5,6.4 L 14.3,5.9 L 14.2,5.6 L 14.1,5" />
  <path
     style="fill:#ff6464;stroke-width:0.1"
     id="path32"
     d="M 14.4,-0.99339 L 10.4,-0.99339 L 10.4,-3.05359 L 14.4,-3.05359" />
  <path
     style="fill:#ff6464;stroke-width:0.1"
     id="path34"
     d="M 14.4,3.006 L 10.4,3.006 L 10.4,1.001 L 14.4,1.001" />
  <path
     id="path4162"
     d="M 27.836342,-0.01765918 A 1.3436832,1.3436832 0 0 1 26.492659,1.3260241 A 1.3436832,1.3436832 0 0 1 25.148975,-0.01765918 A 1.3436832,1.3436832 0 0 1 26.492659,-1.3613424 A 1.3436832,1.3436832 0 0 1 27.836342,-0.01765918 Z"
     style="fill:#000000;fill-opacity:1;fill-rule:nonzero;stroke:none;stroke-width:0.09795226;stroke-linecap:square;stroke-linejoin:round;stroke-miterlimit:4;stroke-dasharray:none;stroke-opacity:1" />
  <path
     style="fill:#000000;fill-opacity:1;fill-rule:evenodd;stroke:none;stroke-width:1px;stroke-linecap:butt;stroke-linejoin:round;stroke-opacity:1"
     d="M 17.763532,3.590594 L 16.552594,2.324969 L 16.369,2.5320002 L 17.560408,3.7820002 Z"
     id="path5008-6" />
  <path
     style="fill:#000000;fill-opacity:1;fill-rule:evenodd;stroke:none;stroke-width:1px;stroke-linecap:butt;stroke-linejoin:round;stroke-opacity:1"
     d="M 16.369,3.590594 L 17.579938,2.324969 L 17.763532,2.5320003 L 16.572124,3.7820002 Z"
     id="path5008" />
</svg>
