<?xml version="1.0" encoding="UTF-8" standalone="no"?>
<svg
   xmlns:dc="http://purl.org/dc/elements/1.1/"
   xmlns:cc="http://creativecommons.org/ns#"
   xmlns:rdf="http://www.w3.org/1999/02/22-rdf-syntax-ns#"
   xmlns:svg="http://www.w3.org/2000/svg"
   xmlns="http://www.w3.org/2000/svg"
   xmlns:sodipodi="http://sodipodi.sourceforge.net/DTD/sodipodi-0.dtd"
   xmlns:inkscape="http://www.inkscape.org/namespaces/inkscape"
   version="1.1"
   id="svg4506"
   width="35.75px"
   height="14.8px"
   inkscape:version="0.91 r13725"
   sodipodi:docname="brokensled.svg">
  <sodipodi:namedview
     pagecolor="#ffffff"
     bordercolor="#666666"
     borderopacity="1"
     objecttolerance="10"
     gridtolerance="10"
     guidetolerance="10"
     inkscape:pageopacity="0"
     inkscape:pageshadow="2"
     inkscape:window-width="1920"
     inkscape:window-height="1017"
     id="namedview13"
     showgrid="false"
     inkscape:zoom="33.118881"
     inkscape:cx="17.788567"
     inkscape:cy="8.037435"
     inkscape:window-x="1912"
     inkscape:window-y="-8"
     inkscape:window-maximized="1"
     inkscape:current-layer="svg4506" />
  <metadata
     id="metadata4532">
    <rdf:RDF>
      <cc:Work
         rdf:about="">
        <dc:format>image/svg+xml</dc:format>
        <dc:type
           rdf:resource="http://purl.org/dc/dcmitype/StillImage" />
        <dc:title></dc:title>
      </cc:Work>
    </rdf:RDF>
  </metadata>
  <defs
     id="defs4530" />
  <path
     style="fill:#ffffff;fill-rule:nonzero;stroke:none;stroke-width:0.1;stroke-miterlimit:4;stroke-dasharray:none"
     id="path4512"
     d="M 31.325261,4.4411473 L 31.325261,2.8411473 L 34.725261,2.8411473 Q 35.025261,2.8411473 35.225261,2.6411473 L 35.475261,2.0911473 L 35.225261,1.5911473 L 34.725261,1.3411473 L 14.075261,1.3411473 L 12.825261,-0.20885267 Q 10.675261,-2.4088526 7.6252603,-2.4088526 Q 4.5752603,-2.4088526 2.3752603,-0.20885267 Q 1.3752603,0.79114733 0.77526027,2.0911473 L 3.0252603,1.2911473 L 3.4252603,0.84114733 Q 5.1752603,-0.90885267 7.6252603,-0.90885267 Q 10.075261,-0.90885267 11.775261,0.84114733 L 12.275261,1.3411473 L 11.225261,1.3411473 L 10.675261,1.5911473 L 10.475261,2.0911473 L 10.675261,2.6411473 L 11.225261,2.8411473 L 13.125261,2.8411473 L 13.425261,3.8911473 L 13.725261,4.3911473 L 14.275261,4.4911473 L 14.775261,4.1911473 L 14.925261,3.6411473 L 14.725261,2.8411473 L 15.275261,2.8411473 L 15.275261,4.4911473 L 16.775261,3.4911473 L 16.775261,2.8411473 L 29.825261,2.8411473 L 29.825261,3.4411473 L 31.325261,4.4411473"
     inkscape:connector-curvature="0" />
  <path
     id="path4514"
     d="M 7.6251096,-2.5347252 C 5.5617217,-2.5347252 3.7743087,-1.7835337 2.287219,-0.29644397 C 1.6102403,0.38053473 1.0681812,1.1599087 0.66221895,2.0394935 A 0.1250125,0.1250125 0 1 0 0.88878145,2.1430091 C 1.2828192,1.2892605 1.8066455,0.53569203 2.4630002,-0.12066277 C 3.9092439,-1.5669063 5.6218309,-2.2847252 7.6251096,-2.2847252 C 9.6283885,-2.2847252 11.323756,-1.5661981 12.736438,-0.12066277 L 13.978626,1.4203529 A 0.1250125,0.1250125 0 0 0 14.074329,1.4652748 L 34.711048,1.4652748 C 34.876504,1.483839 34.955812,1.5156275 35.004016,1.547306 C 35.049343,1.5770932 35.076825,1.6171772 35.127063,1.6703529 C 35.227426,1.8054594 35.288641,1.9488894 35.341907,2.1000404 C 35.288059,2.3769074 35.261605,2.427103 35.189563,2.5512122 C 35.007424,2.7018896 34.90898,2.7152748 34.724719,2.7152748 L 31.324329,2.7152748 A 0.1250125,0.1250125 0 0 0 31.199329,2.8402748 L 31.199329,4.4418372 A 0.1250125,0.1250125 0 1 0 31.449329,4.4418372 L 31.449329,2.9652748 L 34.724719,2.9652748 C 34.928914,2.9652748 35.134899,2.9377141 35.369251,2.7367591 A 0.1250125,0.1250125 0 0 0 35.396594,2.703556 C 35.480489,2.5565753 35.529358,2.479102 35.597766,2.1137122 A 0.1250125,0.1250125 0 0 0 35.59386,2.0512122 C 35.533714,1.874397 35.457298,1.6910959 35.326282,1.516056 A 0.1250125,0.1250125 0 0 0 35.314563,1.5043372 C 35.275198,1.4635934 35.229696,1.3967845 35.140735,1.3383216 C 35.051774,1.2798588 34.928054,1.238508 34.738391,1.2172279 A 0.1250125,0.1250125 0 0 0 34.724719,1.2152748 L 14.134876,1.2152748 L 12.921985,-0.28667837 A 0.1250125,0.1250125 0 0 0 12.914172,-0.29644397 C 11.460188,-1.7842419 9.6884977,-2.5347252 7.6251096,-2.5347252 Z M 7.6251096,-1.0347252 C 5.9620144,-1.0347252 4.5233377,-0.43490647 3.3360471,0.75238413 A 0.1250125,0.1250125 0 0 0 3.3321408,0.75824353 L 2.9317502,1.2074622 A 0.12521727,0.12521727 0 1 0 3.1192502,1.3734779 L 3.5137815,0.93011853 L 3.5157346,0.92816543 C 4.6613525,-0.21650797 6.0224918,-0.78472517 7.6251096,-0.78472517 C 9.2286812,-0.78472517 10.573235,-0.21697437 11.685657,0.92816543 A 0.1250125,0.1250125 0 0 0 11.68761,0.93011853 L 11.972766,1.2152748 L 11.224719,1.2152748 A 0.1250125,0.1250125 0 0 0 11.205188,1.2172279 C 11.039243,1.2438346 10.840895,1.3015334 10.597766,1.4926185 A 0.1250125,0.1250125 0 0 0 10.576281,1.5141029 C 10.399371,1.738327 10.403781,1.9146233 10.357531,2.0512122 A 0.1250125,0.1250125 0 0 0 10.349719,2.0922279 C 10.351002,2.1902837 10.340306,2.2728771 10.367297,2.3773841 C 10.394288,2.4818912 10.457863,2.5853814 10.582141,2.7250404 A 0.1250125,0.1250125 0 0 0 10.599719,2.7406654 C 10.884818,2.9559472 11.045026,2.953354 11.216907,2.9652748 A 0.1250125,0.1250125 0 0 0 11.224719,2.9652748 L 13.03136,2.9652748 L 13.304798,3.9262122 A 0.1250125,0.1250125 0 0 0 13.306751,3.9320716 C 13.41195,4.2384352 13.534093,4.3794672 13.638782,4.4808998 A 0.1250125,0.1250125 0 0 0 13.664172,4.500431 C 13.838228,4.5964358 13.991942,4.624962 14.103626,4.6273841 C 14.159467,4.6285952 14.205576,4.6234439 14.236438,4.6195716 C 14.251869,4.6176355 14.263346,4.6160855 14.267688,4.6156654 A 0.1250125,0.1250125 0 0 0 14.306751,4.6117591 C 14.506023,4.5587633 14.701279,4.4560849 14.867298,4.2758216 A 0.1250125,0.1250125 0 0 0 14.880969,4.2562904 C 14.95621,4.1331752 15.079961,3.9626011 15.048938,3.6293372 A 0.1250125,0.1250125 0 0 0 15.046985,3.6117591 L 14.884876,2.9652748 L 15.150501,2.9652748 L 15.150501,4.4906654 A 0.1250125,0.1250125 0 1 0 15.400501,4.4906654 L 15.400501,2.8402748 A 0.1250125,0.1250125 0 0 0 15.275501,2.7152748 L 14.724719,2.7152748 A 0.1250125,0.1250125 0 0 0 14.603626,2.8715248 L 14.800891,3.6547279 C 14.825092,3.9206268 14.757005,3.9772841 14.671985,4.1137122 C 14.543613,4.2488717 14.403403,4.3233863 14.248157,4.3656654 C 14.247435,4.3657728 14.244981,4.3655947 14.244251,4.3656654 C 14.230227,4.3670222 14.218315,4.3698778 14.205188,4.3715248 C 14.178935,4.3748187 14.148236,4.3782245 14.109485,4.3773841 C 14.036658,4.3758047 13.931546,4.352819 13.804798,4.2875404 C 13.714173,4.1992509 13.635716,4.1167879 13.545032,3.8558998 L 13.543079,3.8500404 L 13.246204,2.8070716 A 0.1250125,0.1250125 0 0 0 13.12511,2.7152748 L 11.228626,2.7152748 C 11.044275,2.7032623 11.000262,2.7264735 10.757922,2.5453529 C 10.660437,2.4328917 10.621913,2.3630066 10.609485,2.3148841 C 10.597674,2.2691534 10.601816,2.2060743 10.601672,2.1137122 C 10.655186,1.9445664 10.647667,1.8411716 10.767688,1.6820716 C 10.969002,1.5282177 11.102665,1.4879759 11.244251,1.4652748 L 12.275501,1.4652748 A 0.1250125,0.1250125 0 0 0 12.363391,1.2523841 L 11.865344,0.75433723 L 11.863391,0.75238413 C 10.709503,-0.43444147 9.2872428,-1.0347252 7.6251096,-1.0347252 Z M 16.775501,2.7152748 A 0.1250125,0.1250125 0 0 0 16.650501,2.8402748 L 16.650501,3.4906654 A 0.1250125,0.1250125 0 1 0 16.900501,3.4906654 L 16.900501,2.9652748 L 29.699329,2.9652748 L 29.699329,3.4418372 A 0.1250125,0.1250125 0 1 0 29.949329,3.4418372 L 29.949329,2.8402748 A 0.1250125,0.1250125 0 0 0 29.824329,2.7152748 L 16.775501,2.7152748 Z"
     style="color:#000000;font-style:normal;font-variant:normal;font-weight:normal;font-stretch:normal;font-size:medium;line-height:normal;font-family:sans-serif;text-indent:0;text-align:start;text-decoration:none;text-decoration-line:none;text-decoration-style:solid;text-decoration-color:#000000;letter-spacing:normal;word-spacing:normal;text-transform:none;direction:ltr;block-progression:tb;writing-mode:lr-tb;baseline-shift:baseline;text-anchor:start;white-space:normal;clip-rule:nonzero;display:inline;overflow:visible;visibility:visible;opacity:1;isolation:auto;mix-blend-mode:normal;color-interpolation:sRGB;color-interpolation-filters:linearRGB;solid-color:#000000;solid-opacity:1;fill:#000000;fill-opacity:1;fill-rule:nonzero;stroke:none;stroke-width:0.25;stroke-linecap:round;stroke-linejoin:round;stroke-miterlimit:4;stroke-dasharray:none;stroke-dashoffset:0;stroke-opacity:1;color-rendering:auto;image-rendering:auto;shape-rendering:auto;text-rendering:auto;enable-background:accumulate"
     inkscape:connector-curvature="0" />
  <path
     style="fill:#ffffff;fill-rule:nonzero;stroke:none;stroke-width:0.1;stroke-miterlimit:4;stroke-dasharray:none"
     id="path4516"
     d="M 31.975261,0.59114733 L 28.675261,7.441147 L 22.475261,5.791147 L 20.125261,6.741147 L 33.275261,10.241147 L 33.825261,10.191147 L 34.325261,9.741147 Q 34.425261,9.441147 34.275261,9.241147 L 33.925261,8.841147 L 30.125261,7.841147 L 32.975261,1.9411473 L 31.975261,0.59114733"
     inkscape:connector-curvature="0" />
  <path
     id="path4518"
     d="M 31.955188,0.46527483 A 0.1250125,0.1250125 0 0 0 31.943469,0.46918103 A 0.1250125,0.1250125 0 0 0 31.931751,0.47308723 A 0.1250125,0.1250125 0 0 0 31.920032,0.47699353 A 0.1250125,0.1250125 0 0 0 31.898548,0.49066543 A 0.1250125,0.1250125 0 0 0 31.888782,0.49847793 A 0.1250125,0.1250125 0 0 0 31.888782,0.50043103 A 0.1250125,0.1250125 0 0 0 31.873157,0.51800913 A 0.1250125,0.1250125 0 0 0 31.855579,0.55121223 A 0.1250125,0.1250125 0 0 0 31.851672,0.56293103 L 28.607532,7.2934 L 22.507922,5.670353 A 0.1250125,0.1250125 0 0 0 22.427844,5.676212 L 20.078235,6.625431 A 0.1250125,0.1250125 0 0 0 20.09386,6.861759 L 33.242298,10.361759 A 0.1250125,0.1250125 0 0 0 33.261829,10.365665 C 33.647932,10.405504 33.736329,10.335693 33.849719,10.312931 A 0.1250125,0.1250125 0 0 0 33.867298,10.309025 C 34.043881,10.244511 34.164803,10.103973 34.326282,9.932072 A 0.1250125,0.1250125 0 0 0 34.328235,9.930119 C 34.495144,9.74549 34.525602,9.48498 34.433704,9.182072 A 0.1250125,0.1250125 0 0 0 34.429798,9.172306 C 34.322523,8.901175 34.097904,8.782248 33.976672,8.726993 A 0.1250125,0.1250125 0 0 0 33.957141,8.721134 L 30.302844,7.760197 L 33.088001,1.9945716 A 0.1250125,0.1250125 0 0 0 33.076282,1.8676185 L 32.086048,0.52777483 L 32.084094,0.52582163 A 0.1250125,0.1250125 0 0 0 32.068469,0.50629043 A 0.1250125,0.1250125 0 0 0 32.039172,0.48285293 A 0.1250125,0.1250125 0 0 0 32.029407,0.47699353 A 0.1250125,0.1250125 0 0 0 32.027454,0.47699353 A 0.1250125,0.1250125 0 0 0 31.992298,0.46527483 A 0.1250125,0.1250125 0 0 0 31.966907,0.46527483 A 0.1250125,0.1250125 0 0 0 31.955188,0.46527483 Z M 31.998157,0.83246223 L 32.830188,1.9555091 L 30.011829,7.78754 A 0.1250125,0.1250125 0 0 0 30.09386,7.961369 L 33.873157,8.955509 L 33.87511,8.957462 C 33.982095,9.006337 34.12216,9.080482 34.195422,9.26215 C 34.269081,9.511502 34.24592,9.647959 34.142688,9.76215 C 33.984414,9.930554 33.880748,10.035375 33.789172,10.070743 C 33.632866,10.104395 33.626786,10.149894 33.296985,10.117619 L 20.521594,6.717228 L 22.482532,5.922306 L 28.642688,7.560978 A 0.1250125,0.1250125 0 0 0 28.787219,7.494572 L 31.998157,0.83246223 Z"
     style="color:#000000;font-style:normal;font-variant:normal;font-weight:normal;font-stretch:normal;font-size:medium;line-height:normal;font-family:sans-serif;text-indent:0;text-align:start;text-decoration:none;text-decoration-line:none;text-decoration-style:solid;text-decoration-color:#000000;letter-spacing:normal;word-spacing:normal;text-transform:none;direction:ltr;block-progression:tb;writing-mode:lr-tb;baseline-shift:baseline;text-anchor:start;white-space:normal;clip-rule:nonzero;display:inline;overflow:visible;visibility:visible;opacity:1;isolation:auto;mix-blend-mode:normal;color-interpolation:sRGB;color-interpolation-filters:linearRGB;solid-color:#000000;solid-opacity:1;fill:#000000;fill-opacity:1;fill-rule:nonzero;stroke:none;stroke-width:0.25;stroke-linecap:round;stroke-linejoin:round;stroke-miterlimit:4;stroke-dasharray:none;stroke-dashoffset:0;stroke-opacity:1;color-rendering:auto;image-rendering:auto;shape-rendering:auto;text-rendering:auto;enable-background:accumulate"
     inkscape:connector-curvature="0" />
  <path
     style="fill:#ffffff;fill-rule:nonzero;stroke:none;stroke-width:0.1;stroke-miterlimit:4;stroke-dasharray:none"
     id="path4520"
     d="M 22.775261,4.1411473 L 16.225261,2.3911473 L 16.925261,4.1411473 L 22.975261,5.791147 L 22.775261,4.1411473"
     inkscape:connector-curvature="0" />
  <path
     id="path4522"
     d="M 16.220813,2.266056 A 0.1250125,0.1250125 0 0 0 16.109485,2.437931 L 16.808704,4.187931 A 0.1250125,0.1250125 0 0 0 16.892688,4.2621498 L 22.941516,5.91254 A 0.12556303,0.12556303 0 1 0 23.007922,5.670353 L 17.017688,4.0375404 L 16.433704,2.5766029 L 22.742298,4.2621498 A 0.12530864,0.12530864 0 0 0 22.806751,4.0199622 L 16.257922,2.2699622 A 0.1250125,0.1250125 0 0 0 16.220813,2.266056 Z"
     style="color:#000000;font-style:normal;font-variant:normal;font-weight:normal;font-stretch:normal;font-size:medium;line-height:normal;font-family:sans-serif;text-indent:0;text-align:start;text-decoration:none;text-decoration-line:none;text-decoration-style:solid;text-decoration-color:#000000;letter-spacing:normal;word-spacing:normal;text-transform:none;direction:ltr;block-progression:tb;writing-mode:lr-tb;baseline-shift:baseline;text-anchor:start;white-space:normal;clip-rule:nonzero;display:inline;overflow:visible;visibility:visible;opacity:1;isolation:auto;mix-blend-mode:normal;color-interpolation:sRGB;color-interpolation-filters:linearRGB;solid-color:#000000;solid-opacity:1;fill:#000000;fill-opacity:1;fill-rule:nonzero;stroke:none;stroke-width:0.25;stroke-linecap:round;stroke-linejoin:round;stroke-miterlimit:4;stroke-dasharray:none;stroke-dashoffset:0;stroke-opacity:1;color-rendering:auto;image-rendering:auto;shape-rendering:auto;text-rendering:auto;enable-background:accumulate"
     inkscape:connector-curvature="0" />
  <path
     style="fill:#ffffff;fill-rule:nonzero;stroke:none;stroke-width:0.1;stroke-miterlimit:4;stroke-dasharray:none"
     id="path4524"
     d="M 25.475261,4.0911473 L 19.175261,5.941147 L 19.025261,5.3411473 L 17.725261,6.291147 L 17.725261,6.391147 L 10.425261,8.541147 Q 8.0252603,9.191147 5.9252603,8.041147 Q 3.8252603,6.891147 3.1252603,4.5411473 Q 2.5252603,2.4911473 3.3252603,0.64114733 L 1.3752603,1.9911473 Q 1.2252603,3.4411473 1.6752603,4.9911473 Q 2.5252603,7.891147 5.2252603,9.341147 Q 7.8752603,10.791147 10.825261,9.991147 L 24.275261,6.041147 L 25.475261,4.0911473"
     inkscape:connector-curvature="0" />
  <path
     id="path4526"
     d="M 3.3223752,0.51605603 A 0.1250125,0.1250125 0 0 0 3.2540158,0.53754043 L 1.3047971,1.8891029 A 0.1250125,0.1250125 0 0 0 1.2501096,1.9789466 C 1.148324,2.9628741 1.2508504,3.9788941 1.5547971,5.0258216 C 2.1299302,6.98804 3.3403406,8.471089 5.1661252,9.451603 C 6.9584188,10.432292 8.863327,10.65256 10.857532,10.111759 A 0.1250125,0.1250125 0 0 0 10.861438,10.111759 L 24.310657,6.160587 A 0.1251562,0.1251562 0 1 0 24.240344,5.920353 L 10.793079,9.869572 C 8.8539491,10.395437 7.0263056,10.183544 5.2852658,9.2309 C 3.5110504,8.27808 2.3532317,6.859957 1.7950315,4.9555091 C 1.5040802,3.9533436 1.4160896,2.9893064 1.5059689,2.0551185 L 3.130969,0.92816543 C 2.7089252,2.0902223 2.6341399,3.306187 3.005969,4.5766029 C 3.4808062,6.170699 4.4390145,7.369736 5.865344,8.150822 C 7.2916416,8.931889 8.8303071,9.103141 10.457141,8.66254 A 0.1250125,0.1250125 0 0 0 10.461047,8.660587 L 17.759876,6.510197 A 0.1250125,0.1250125 0 0 0 17.849719,6.391056 L 17.849719,6.353947 L 18.949329,5.551212 L 19.054798,5.971134 A 0.1250125,0.1250125 0 0 0 19.211048,6.060978 L 25.509876,4.2113685 A 0.12515639,0.12515639 0 0 0 25.439563,3.9711341 L 19.265735,5.783634 L 19.146594,5.3109779 A 0.1250125,0.1250125 0 0 0 18.951282,5.2406654 L 17.652454,6.189884 A 0.1250125,0.1250125 0 0 0 17.599719,6.291447 L 17.599719,6.297306 L 10.390735,8.420353 C 8.8183328,8.845737 7.3576028,8.684017 5.9844846,7.932072 C 4.6108141,7.179823 3.7027463,6.045527 3.2442502,4.5062904 L 3.2462034,4.5062904 C 2.8532579,3.1637267 2.9174243,1.8973292 3.4395627,0.68988413 A 0.1250125,0.1250125 0 0 0 3.3223752,0.51605603 Z"
     style="color:#000000;font-style:normal;font-variant:normal;font-weight:normal;font-stretch:normal;font-size:medium;line-height:normal;font-family:sans-serif;text-indent:0;text-align:start;text-decoration:none;text-decoration-line:none;text-decoration-style:solid;text-decoration-color:#000000;letter-spacing:normal;word-spacing:normal;text-transform:none;direction:ltr;block-progression:tb;writing-mode:lr-tb;baseline-shift:baseline;text-anchor:start;white-space:normal;clip-rule:nonzero;display:inline;overflow:visible;visibility:visible;opacity:1;isolation:auto;mix-blend-mode:normal;color-interpolation:sRGB;color-interpolation-filters:linearRGB;solid-color:#000000;solid-opacity:1;fill:#000000;fill-opacity:1;fill-rule:nonzero;stroke:none;stroke-width:0.25;stroke-linecap:round;stroke-linejoin:round;stroke-miterlimit:4;stroke-dasharray:none;stroke-dashoffset:0;stroke-opacity:1;color-rendering:auto;image-rendering:auto;shape-rendering:auto;text-rendering:auto;enable-background:accumulate"
     inkscape:connector-curvature="0" />
</svg>
