<?xml version="1.0" encoding="UTF-8" standalone="no"?>
<svg
   xmlns:dc="http://purl.org/dc/elements/1.1/"
   xmlns:cc="http://creativecommons.org/ns#"
   xmlns:rdf="http://www.w3.org/1999/02/22-rdf-syntax-ns#"
   xmlns:svg="http://www.w3.org/2000/svg"
   xmlns="http://www.w3.org/2000/svg"
   height="5.4px"
   width="15.85px"
   id="svg5821"
   version="1.1">
  <metadata
     id="metadata4150">
    <rdf:RDF>
      <cc:Work
         rdf:about="">
        <dc:format>image/svg+xml</dc:format>
        <dc:type
           rdf:resource="http://purl.org/dc/dcmitype/StillImage" />
        <dc:title></dc:title>
      </cc:Work>
    </rdf:RDF>
  </metadata>
  <defs
     id="defs4148" />
  <path
     id="path5836"
     style="fill:#ffffff;fill-opacity:1;stroke:#000000;stroke-width:0.1;stroke-linecap:round;stroke-linejoin:round;stroke-miterlimit:4;stroke-dasharray:none"
     d="M 9.8533692,-1.3691648 L 12.067245,-1.3691648 L 13.526392,-3.9690886 L 14.63333,-3.8690917 L 14.63333,1.3807545 L 9.8533692,1.3807545 M 9.9239258,1.3795226 L 0.09231487,1.3795226 L 0.04469841,-1.3679327 L 9.8963045,-1.3679327" />
  <path
     id="path5832"
     style="fill:#000000;fill-rule:nonzero;stroke:none"
     d="M 0.01985469,-1.3691648 L 9.8533692,-1.3691648 L 9.8533692,1.3807545 L 0.0285351,1.3807545 M 1.5591515,0.00618561 A 1.4330905,1.424066 0 0 1 0.12606103,1.4302515 A 1.4330905,1.424066 0 0 1 -1.3070295,0.00618561 A 1.4330905,1.424066 0 0 1 0.12606103,-1.4178805 A 1.4330905,1.424066 0 0 1 1.5591515,0.00618561 Z" />
</svg>
