<?xml version="1.0" encoding="UTF-8" standalone="no"?>
<svg
   xmlns:dc="http://purl.org/dc/elements/1.1/"
   xmlns:cc="http://creativecommons.org/ns#"
   xmlns:rdf="http://www.w3.org/1999/02/22-rdf-syntax-ns#"
   xmlns:svg="http://www.w3.org/2000/svg"
   xmlns="http://www.w3.org/2000/svg"
   version="1.1"
   id="svg3377"
   width="35.75px"
   height="14.8px">
  <defs
     id="defs9742" />
  <metadata
     id="metadata3390">
    <rdf:RDF>
      <cc:Work
         rdf:about="">
        <dc:format>image/svg+xml</dc:format>
        <dc:type
           rdf:resource="http://purl.org/dc/dcmitype/StillImage" />
        <dc:title></dc:title>
      </cc:Work>
    </rdf:RDF>
  </metadata>
  <path
     style="color:#000000;font-style:normal;font-variant:normal;font-weight:normal;font-stretch:normal;font-size:medium;line-height:normal;font-family:sans-serif;text-indent:0;text-align:start;text-decoration:none;text-decoration-line:none;text-decoration-style:solid;text-decoration-color:#000000;letter-spacing:normal;word-spacing:normal;text-transform:none;direction:ltr;block-progression:tb;writing-mode:lr-tb;baseline-shift:baseline;text-anchor:start;white-space:normal;clip-rule:nonzero;display:inline;overflow:visible;visibility:visible;opacity:1;isolation:auto;mix-blend-mode:normal;color-interpolation:sRGB;color-interpolation-filters:linearRGB;solid-color:#000000;solid-opacity:1;fill:#000000;fill-opacity:1;fill-rule:nonzero;stroke:none;stroke-width:0.25;stroke-linecap:round;stroke-linejoin:round;stroke-miterlimit:4;stroke-dasharray:none;stroke-dashoffset:0;stroke-opacity:1;"
     d="M 27.099609,-4.625 C 25.036222,-4.625 23.264531,-3.8745167 21.810547,-2.3867188 C 21.807829,-2.384231 21.805222,-2.3816243 21.802734,-2.3789062 L 20.589844,-0.875 L 0.01171875,-0.875 L 0,-0.875 C -0.02680496,-0.87667557 -0.04501602,-0.8751262 -0.08398437,-0.87109375 C -0.12837987,-0.8664997 -0.18681336,-0.85770534 -0.25195312,-0.83984375 C -0.38223265,-0.80412057 -0.54389485,-0.733182 -0.67773438,-0.58984375 C -0.9103691,-0.34357428 -0.87541185,0.00177275 -0.875,0.00585938 C -0.8749781,0.00627347 -0.87502176,0.00739659 -0.875,0.0078125 C -0.86663283,0.16775794 -0.86428561,0.4616969 -0.625,0.6640625 C -0.47567545,0.81011275 -0.23727489,0.875 0,0.875 L 3.2753906,0.875 L 3.2753906,8.6757812 L -0.5,8.6757812 C -0.74735901,8.6757812 -0.94157819,8.7903856 -1.1074219,8.953125 C -1.111583,8.9567678 -1.1154979,8.9606826 -1.1191406,8.9648438 C -1.2449208,9.1265763 -1.3273544,9.24161 -1.3730469,9.53125 C -1.3746983,9.5402654 -1.3753533,9.5494352 -1.375,9.5585938 C -1.3549634,9.8653949 -1.2671787,10.013734 -1.0878906,10.189453 C -1.0841868,10.192944 -1.0802733,10.196205 -1.0761719,10.199219 C -0.86925732,10.360842 -0.71826888,10.425781 -0.5,10.425781 L 27.150391,10.425781 L 27.152344,10.425781 C 29.213872,10.391986 30.983385,9.6605328 32.4375,8.2402344 L 32.439453,8.2382812 C 33.892968,6.7509636 34.625,4.9630955 34.625,2.9003906 C 34.625,0.83768581 33.891731,-0.93444053 32.4375,-2.3886719 C 30.95041,-3.8757616 29.162997,-4.625 27.099609,-4.625 Z M 27.099609,-4.375 C 29.102888,-4.375 30.815475,-3.6571811 32.261719,-2.2109375 C 33.674154,-0.79850218 34.375,0.89642902 34.375,2.9003906 C 34.375,4.9034009 33.673524,6.6149646 32.261719,8.0605469 C 32.261311,8.0609455 32.260174,8.0601484 32.259766,8.0605469 C 32.259364,8.0609581 32.260167,8.0620888 32.259766,8.0625 C 30.847621,9.4408823 29.152608,10.142926 27.148438,10.175781 L -0.5,10.175781 C -0.67755537,10.175781 -0.73192633,10.147397 -0.9140625,10.005859 C -1.0743419,9.8487453 -1.1011355,9.8088767 -1.1191406,9.5527344 C -1.080509,9.323203 -1.0417909,9.2779791 -0.92382812,9.1269531 C -0.78520541,8.9925729 -0.6723941,8.9257812 -0.5,8.9257812 L 3.4003906,8.9257812 C 3.4694233,8.9257743 3.5253837,8.8698139 3.5253906,8.8007812 L 3.5253906,0.75 C 3.5253837,0.68096727 3.4694233,0.6250069 3.4003906,0.625 L 0,0.625 C -0.18394097,0.625 -0.39208828,0.54736484 -0.45507812,0.484375 C -0.45756588,0.48165697 -0.46017259,0.47905026 -0.46289062,0.4765625 C -0.61658316,0.34988676 -0.61572214,0.16958096 -0.625,-0.00585938 L -0.625,-0.00976563 C -0.625,-0.00976563 -0.63240395,-0.2716018 -0.49414062,-0.41796875 C -0.40119744,-0.51750821 -0.28480391,-0.57043957 -0.18554688,-0.59765625 C -0.13591836,-0.61126459 -0.09115293,-0.61967765 -0.05859375,-0.62304688 C -0.02603457,-0.6264161 0.00893462,-0.62312242 -0.01171875,-0.625 C -0.00781465,-0.62481681 -0.0039041,-0.62481681 0,-0.625 L 20.628906,-0.625 C 20.639924,-0.62352369 20.651091,-0.62352369 20.662109,-0.625 C 20.677018,-0.62630276 20.691572,-0.63027199 20.705078,-0.63671875 L 20.710938,-0.63867188 L 20.712891,-0.640625 L 20.720703,-0.64648438 L 20.722656,-0.6484375 C 20.72604,-0.6508771 20.729299,-0.65348453 20.732422,-0.65625 L 20.740234,-0.66210938 L 20.742188,-0.6640625 L 20.748047,-0.671875 L 20.755859,-0.68164062 L 21.990234,-2.2128906 L 21.994141,-2.2148438 C 23.406177,-3.6581722 25.097855,-4.375 27.099609,-4.375 Z M 27.087891,-3.125 C 27.075757,-3.1234818 27.063912,-3.1201915 27.052734,-3.1152344 L 27.050781,-3.1152344 C 25.41032,-3.1026831 24.001411,-2.5135163 22.859375,-1.3378906 L 22.361328,-0.83789062 C 22.283623,-0.75927778 22.338687,-0.62590022 22.449219,-0.625 L 23.492188,-0.625 C 23.684014,-0.61254374 23.7973,-0.55791926 23.863281,-0.51171875 C 23.929263,-0.46551824 23.941406,-0.43945312 23.941406,-0.43945312 C 23.94522,-0.43184495 23.949801,-0.42464615 23.955078,-0.41796875 C 24.001624,-0.36397555 24.051668,-0.24970813 24.082031,-0.15234375 C 24.109991,-0.06268786 24.120965,-0.00318776 24.123047,0.0078125 C 24.122998,0.0096106 24.123094,0.01171137 24.123047,0.01367188 C 24.122763,0.02558014 24.123534,0.0398374 24.123047,0.05859375 C 24.122073,0.09610645 24.120293,0.14771772 24.115234,0.20117188 C 24.105117,0.30808019 24.065558,0.42727967 24.054688,0.43945312 C 24.049617,0.44489411 24.045041,0.45077682 24.041016,0.45703125 C 24.025069,0.48239032 23.885742,0.5550975 23.748047,0.5859375 C 23.679199,0.6013575 23.612789,0.61098165 23.564453,0.6171875 C 23.540285,0.62029043 23.521051,0.62171378 23.507812,0.62304688 C 23.504452,0.62338527 23.502535,0.62475658 23.5,0.625 C 23.497542,0.62523605 23.493914,0.62483791 23.492188,0.625 L 23.488281,0.625 L 21.599609,0.625 C 21.544417,0.62536401 21.495995,0.66187919 21.480469,0.71484375 L 21.183594,1.7539062 C 21.102229,1.9404588 21.06849,2.0862504 20.927734,2.1933594 C 20.807527,2.2664608 20.693714,2.3082014 20.46875,2.2753906 L 20.466797,2.2753906 C 20.326455,2.256552 20.209025,2.234331 20.125,2.1992188 C 20.043101,2.164995 19.995453,2.1239204 19.962891,2.0625 C 19.914119,1.9411028 19.900861,1.877843 19.900391,1.8183594 C 19.899946,1.7620418 19.912247,1.6879727 19.921875,1.5800781 L 19.921875,1.578125 L 20.121094,0.78125 C 20.141519,0.70210289 20.08174,0.62496918 20,0.625 L 19.449219,0.625 C 19.380186,0.6250069 19.324226,0.68096727 19.324219,0.75 L 19.324219,8.8007812 C 19.324226,8.8698139 19.380186,8.9257743 19.449219,8.9257812 L 27.099609,8.9257812 L 27.101562,8.9257812 C 28.795147,8.8919096 30.231864,8.3103422 31.386719,7.1894531 L 31.390625,7.1875 C 32.544272,5.9999214 33.125,4.5626355 33.125,2.9003906 C 33.125,1.2381458 32.543235,-0.18332677 31.388672,-1.3378906 C 30.213399,-2.5131635 28.788232,-3.1032257 27.146484,-3.1152344 C 27.145682,-3.1152402 27.145333,-3.1171819 27.144531,-3.1171875 C 27.130163,-3.1225235 27.114935,-3.1251717 27.099609,-3.125 C 27.095705,-3.1251832 27.091795,-3.1251832 27.087891,-3.125 Z M 27.099609,-2.875 C 28.70318,-2.875 30.064894,-2.3081521 31.210938,-1.1621094 C 32.32304,-0.05000657 32.875,1.295969 32.875,2.9003906 C 32.875,4.5032747 32.323768,5.8646933 31.212891,7.0097656 C 30.101543,8.0884266 28.738446,8.6425665 27.099609,8.6757812 L 19.574219,8.6757812 L 19.574219,0.875 L 19.839844,0.875 L 19.679688,1.5195312 C 19.677761,1.526565 19.676454,1.5337539 19.675781,1.5410156 C 19.667031,1.6516658 19.649638,1.7250248 19.650391,1.8203125 C 19.651144,1.9156002 19.673806,2.0181558 19.732422,2.1621094 L 19.736328,2.171875 C 19.79899,2.295343 19.908543,2.3792274 20.029297,2.4296875 C 20.15005,2.4801476 20.285185,2.503516 20.433594,2.5234375 C 20.707881,2.5629044 20.910523,2.5020286 21.066406,2.40625 L 21.074219,2.4003906 C 21.29574,2.2364158 21.344181,2.0086846 21.414062,1.8496094 C 21.416361,1.8445374 21.418319,1.8393174 21.419922,1.8339844 L 21.693359,0.875 L 23.5,0.875 C 23.504554,0.87524939 23.509118,0.87524939 23.513672,0.875 C 23.513686,0.87499857 23.515354,0.87505443 23.515625,0.875 L 23.515625,0.87304688 C 23.516785,0.87293797 23.51983,0.87320394 23.521484,0.87304688 C 23.522587,0.87294217 23.524086,0.87317274 23.525391,0.87304688 C 23.527999,0.87279514 23.529874,0.87338207 23.533203,0.87304688 C 23.548183,0.87153848 23.570779,0.86868519 23.597656,0.86523438 C 23.651412,0.85833274 23.723434,0.84783923 23.802734,0.83007812 C 23.957806,0.79534633 24.140171,0.74991082 24.244141,0.59570312 C 24.338752,0.48304955 24.36249,0.34586517 24.363281,0.22460938 C 24.3652,-0.06934179 24.39093,0.10863165 24.320312,-0.2265625 C 24.297071,-0.3368779 24.236402,-0.46248951 24.152344,-0.56640625 C 24.148676,-0.57241158 24.104637,-0.64763245 24.005859,-0.71679688 C 23.903183,-0.78869102 23.741355,-0.8598349 23.507812,-0.875 L 23.5,-0.875 L 22.751953,-0.875 L 23.039062,-1.1621094 C 24.151484,-2.3072491 25.496038,-2.875 27.099609,-2.875 Z M 4.8867188,0.625 C 4.8230737,0.6320078 4.7750124,0.68597141 4.7753906,0.75 L 4.7753906,8.8007812 C 4.7753975,8.8698139 4.8313579,8.9257743 4.9003906,8.9257812 L 17.939453,8.9257812 C 17.951205,8.926792 17.963041,8.9261344 17.974609,8.9238281 C 17.991406,8.9205932 18.00736,8.9139457 18.021484,8.9042969 C 18.028501,8.8997546 18.035044,8.8945201 18.041016,8.8886719 L 18.041016,8.8867188 C 18.046765,8.8813634 18.051997,8.875478 18.056641,8.8691406 L 18.056641,8.8671875 C 18.058741,8.864023 18.060696,8.8607644 18.0625,8.8574219 C 18.068131,8.8463504 18.072081,8.8345015 18.074219,8.8222656 L 18.074219,8.8203125 C 18.077175,8.8048273 18.077175,8.7889227 18.074219,8.7734375 L 18.074219,0.75 C 18.074212,0.68096727 18.018252,0.6250069 17.949219,0.625 L 4.9003906,0.625 C 4.8958367,0.62475061 4.8912727,0.62475061 4.8867188,0.625 Z M 23.513672,0.62695312 C 23.519341,0.6275243 23.525391,0.62695312 23.525391,0.62695312 L 23.525391,0.62890625 C 23.521518,0.62806985 23.517607,0.62741807 23.513672,0.62695312 Z M 5.0253906,0.875 L 17.824219,0.875 L 17.824219,8.6757812 L 5.0253906,8.6757812 Z"
     id="path3386" />
  <path
     style="fill:#ffffff;fill-opacity:1;fill-rule:nonzero;stroke:none;stroke-width:0.25;stroke-linecap:square;stroke-linejoin:round;stroke-miterlimit:4;stroke-dasharray:none;stroke-opacity:1"
     d="M -0.73263474,10.108701 C -0.96738068,9.9846497 -1.0920097,9.8021722 -1.0920097,9.5825166 C -1.0920097,9.3457197 -0.8944369,9.0571381 -0.67591287,8.9747513 C -0.61718471,8.95261 0.08453548,8.9415847 1.4350246,8.9415847 C 2.9667756,8.9415847 3.4670959,8.9324791 3.4954903,8.9040847 C 3.5242762,8.8752988 3.5329903,7.9129406 3.5329903,4.7626863 L 3.5329903,0.65878784 L 3.4528309,0.62831128 C 3.4042199,0.6098294 2.6693496,0.59756472 1.5856434,0.59714847 C -0.10057877,0.59650065 -0.20873924,0.59312284 -0.33176109,0.5372669 C -0.49420159,0.46351378 -0.5657379,0.35698878 -0.59433306,0.14627003 C -0.63932937,-0.18530935 -0.55301559,-0.38830747 -0.30799149,-0.52716528 L -0.17013474,-0.60529028 L 10.282767,-0.62091528 L 20.735669,-0.63654028 L 21.366051,-1.4177903 C 22.173487,-2.4184695 22.548991,-2.7754395 23.334414,-3.2890014 C 24.892682,-4.3079004 27.034924,-4.6250092 28.97401,-4.1238116 C 30.186828,-3.8103332 31.259278,-3.1781314 32.237234,-2.2001637 C 33.426859,-1.0105237 34.085831,0.30774159 34.297309,1.9209822 C 34.360625,2.4039775 34.360696,3.3841406 34.297453,3.8696716 C 34.202503,4.5986316 34.025856,5.2412447 33.750568,5.8591378 C 33.070575,7.3854166 31.851725,8.6584153 30.353546,9.4070769 C 29.69928,9.7340225 29.0127,9.9464625 28.143782,10.090817 C 27.854339,10.138902 26.720122,10.143563 13.59549,10.150606 C 0.65303132,10.15755 -0.64739352,10.153747 -0.73263474,10.108701 Z M 18.046383,8.8924775 C 18.090524,8.8483369 18.09549,8.4313291 18.09549,4.7692497 L 18.09549,0.69512878 L 18.026037,0.64648159 C 17.963713,0.60282847 17.285225,0.59783472 11.416662,0.59783472 C 4.9184068,0.59783472 4.8763421,0.59823284 4.8142402,0.66033472 C 4.7523815,0.72219347 4.7517402,0.76450128 4.7517402,4.7831025 C 4.7517402,8.4325885 4.7567084,8.8483388 4.8008474,8.8924775 C 4.845179,8.9368091 5.4892268,8.9415847 11.423615,8.9415847 C 17.358004,8.9415847 18.002051,8.9368091 18.046383,8.8924775 Z M 27.64475,8.9083666 C 30.518993,8.6286756 32.680212,6.5912094 33.078968,3.7853097 C 33.133471,3.4017806 33.141484,2.511905 33.093887,2.128265 C 32.872778,0.34614159 31.916125,-1.1662465 30.361115,-2.1920043 C 28.688229,-3.2955198 26.314683,-3.4365784 24.478706,-2.5415926 C 23.847846,-2.2340667 23.278924,-1.8016724 22.618928,-1.1281172 C 22.155762,-0.65543622 22.176821,-0.62091528 22.928327,-0.62091528 C 23.708106,-0.62091528 23.863116,-0.57457841 24.009739,-0.29764872 C 24.065031,-0.19321841 24.078629,-0.11490653 24.07918,0.10228128 C 24.080398,0.58215315 24.034816,0.59783472 22.638728,0.59783472 C 22.084372,0.59783472 21.597194,0.61061503 21.556109,0.62623565 C 21.490806,0.65106378 21.460771,0.72662534 21.317365,1.2268544 C 21.076843,2.0658472 21.003175,2.1934403 20.72232,2.2574663 C 20.57081,2.292006 20.207161,2.2286441 20.084797,2.1463847 C 19.885456,2.0123772 19.875401,1.819126 20.034809,1.1856 C 20.145046,0.74749034 20.148487,0.67417222 20.061011,0.62735659 C 19.960763,0.57370565 19.382672,0.60032347 19.344788,0.66033472 C 19.297576,0.73512409 19.304424,8.8567688 19.35174,8.9040847 C 19.401835,8.9541794 27.132934,8.9581713 27.64475,8.9083666 Z"
     id="path4136" />
</svg>
