<?xml version="1.0" encoding="UTF-8" standalone="no"?>
<svg
   xmlns:dc="http://purl.org/dc/elements/1.1/"
   xmlns:cc="http://creativecommons.org/ns#"
   xmlns:rdf="http://www.w3.org/1999/02/22-rdf-syntax-ns#"
   xmlns:svg="http://www.w3.org/2000/svg"
   xmlns="http://www.w3.org/2000/svg"
   version="1.1"
   id="svg2"
   width="15.589632"
   height="3.8576872">
  <defs
     id="defs8" />
  <metadata
     id="metadata21">
    <rdf:RDF>
      <cc:Work
         rdf:about="">
        <dc:format>image/svg+xml</dc:format>
        <dc:type
           rdf:resource="http://purl.org/dc/dcmitype/StillImage" />
        <dc:title></dc:title>
      </cc:Work>
    </rdf:RDF>
  </metadata>
  <path
     style="fill:#ffffff;fill-opacity:1;fill-rule:nonzero;stroke:#000000;stroke-width:0.2;stroke-linecap:round;stroke-linejoin:round;stroke-miterlimit:4;stroke-dasharray:none"
     id="path15"
     d="m 11.289633,1.1076872 h 1 c 0.199999,-0.66666665 0.5,-1.01666665 0.9,-1.04999995 0.4,-0.066667 0.449999,0.3 0.15,1.09999995 l 0.85,-0.05 c 0.4,-0.033333 0.733333,0.083333 1,0.3499999 0.233333,0.2666667 0.35,0.6000001 0.35,1.0000001 -0.03072,0.3723387 -0.08671,0.5000002 -0.2,0.75 -0.04276,0.081146 -0.09728,0.138779 -0.15,0.2 -0.133333,0.1333333 -0.4,0.2666667 -0.800001,0.4 H 11.289633 1.3396322 v -2.7 h 9.9500008" />
  <path
     id="path13"
     style="fill:#000000;fill-rule:nonzero;stroke:none"
     d="m 11.289633,3.8076872 h -9.9500008 7.812e-4 c 0,-0.5695215 -7.812e-4,-1.9386195 -7.812e-4,-2.7 h 9.9500008 v 2.7 M 2.7222333,2.4550828 A 1.3611166,1.3971287 0 0 1 1.3611167,3.8522116 1.3611166,1.3971287 0 0 1 0,2.4550829 1.3611166,1.3971287 0 0 1 1.3611167,1.0579542 1.3611166,1.3971287 0 0 1 2.7222333,2.4550828 Z" />
</svg>
