<?xml version="1.0" encoding="UTF-8" standalone="no"?>
<svg
   xmlns:dc="http://purl.org/dc/elements/1.1/"
   xmlns:cc="http://creativecommons.org/ns#"
   xmlns:rdf="http://www.w3.org/1999/02/22-rdf-syntax-ns#"
   xmlns:svg="http://www.w3.org/2000/svg"
   xmlns="http://www.w3.org/2000/svg"
   version="1.1"
   id="svg4506"
   width="34.954033"
   height="12.934726">
  <metadata
     id="metadata4532">
    <rdf:RDF>
      <cc:Work
         rdf:about="">
        <dc:format>image/svg+xml</dc:format>
        <dc:type
           rdf:resource="http://purl.org/dc/dcmitype/StillImage" />
        <dc:title></dc:title>
      </cc:Work>
    </rdf:RDF>
  </metadata>
  <defs
     id="defs4530" />
  <path
     style="fill:#ffffff;fill-rule:nonzero;stroke:none;stroke-width:0.4;stroke-miterlimit:4;stroke-dasharray:none;stroke-opacity:1"
     id="path4512"
     d="m 30.679261,6.9758725 v -1.6 h 3.4 q 0.3,0 0.5,-0.2 l 0.25,-0.55 -0.25,-0.5 -0.5,-0.25 h -20.65 l -1.25,-1.55 q -2.15,-2.1999999 -5.2000007,-2.1999999 -3.05,0 -5.25,2.1999999 -1,1 -1.60000003,2.3 l 2.25000003,-0.8 0.4,-0.45 q 1.75,-1.75 4.2,-1.75 2.4500007,0 4.1500007,1.75 l 0.5,0.5 h -1.05 l -0.55,0.25 -0.2,0.5 0.2,0.55 0.55,0.2 h 1.9 l 0.3,1.05 0.3,0.5 0.55,0.1 0.5,-0.3 0.15,-0.55 -0.2,-0.8 h 0.55 v 1.65 l 1.5,-1 v -0.65 h 13.05 v 0.6 l 1.5,1" />
  <path
     id="path4514"
     d="M 6.9791096,0 C 4.9157217,0 3.1283087,0.7511915 1.641219,2.2382812 0.9642403,2.9152599 0.4221812,3.6946339 0.01621895,4.5742187 a 0.1250125,0.1250125 0 1 0 0.2265625,0.1035156 C 0.6368192,3.8239857 1.1606455,3.0704172 1.8170002,2.4140624 3.2632439,0.9678189 4.9758309,0.25 6.9791096,0.25 c 2.0032789,0 3.6986464,0.7185271 5.1113284,2.1640624 l 1.242188,1.5410157 a 0.1250125,0.1250125 0 0 0 0.0957,0.044922 h 20.636719 c 0.165456,0.018564 0.244764,0.050353 0.292968,0.082031 0.04533,0.029787 0.07281,0.069871 0.123047,0.1230469 0.100363,0.1351065 0.161578,0.2785365 0.214844,0.4296875 -0.05385,0.276867 -0.0803,0.3270626 -0.152344,0.4511718 -0.182139,0.1506774 -0.280583,0.1640626 -0.464844,0.1640626 h -3.40039 a 0.1250125,0.1250125 0 0 0 -0.125,0.125 v 1.6015624 a 0.1250125,0.1250125 0 1 0 0.25,0 V 5.5 h 3.27539 c 0.204195,0 0.41018,-0.027561 0.644532,-0.2285157 a 0.1250125,0.1250125 0 0 0 0.02734,-0.033203 c 0.08389,-0.1469807 0.132764,-0.224454 0.201172,-0.5898438 a 0.1250125,0.1250125 0 0 0 -0.0039,-0.0625 C 34.887714,4.4091222 34.811298,4.2258211 34.680282,4.0507812 a 0.1250125,0.1250125 0 0 0 -0.01172,-0.011719 C 34.629198,3.9983186 34.583696,3.9315097 34.494735,3.8730468 34.405774,3.814584 34.282054,3.7732332 34.092391,3.7519531 a 0.1250125,0.1250125 0 0 0 -0.01367,-0.00195 H 13.488876 L 12.275985,2.2480499 a 0.1250125,0.1250125 0 0 0 -0.0078,-0.00977 C 10.814188,0.7504833 9.0424977,0 6.9791096,0 Z m 0,1.5 C 5.3160144,1.5 3.8773377,2.0998187 2.6900471,3.2871093 a 0.1250125,0.1250125 0 0 0 -0.00391,0.00586 L 2.2857502,3.7421874 a 0.12521727,0.12521727 0 1 0 0.1875,0.1660157 l 0.3945313,-0.4433594 0.00195,-0.00195 c 1.1456179,-1.1446734 2.5067572,-1.7128906 4.109375,-1.7128906 1.6035716,0 2.9481254,0.5677508 4.0605475,1.7128906 a 0.1250125,0.1250125 0 0 0 0.002,0.00195 L 11.32681,3.75 h -0.748047 a 0.1250125,0.1250125 0 0 0 -0.01953,0.00195 C 10.393288,3.778557 10.19494,3.836256 9.9518109,4.0273406 a 0.1250125,0.1250125 0 0 0 -0.02149,0.021484 c -0.17691,0.2242241 -0.1725,0.4005204 -0.21875,0.5371093 a 0.1250125,0.1250125 0 0 0 -0.0078,0.041016 c 0.0013,0.098056 -0.0094,0.1806492 0.01758,0.2851562 0.02699,0.1045071 0.09057,0.2079973 0.214844,0.3476563 a 0.1250125,0.1250125 0 0 0 0.01758,0.015625 C 10.238874,5.4906692 10.399082,5.488076 10.570963,5.4999968 a 0.1250125,0.1250125 0 0 0 0.0078,0 h 1.806641 l 0.273438,0.9609374 a 0.1250125,0.1250125 0 0 0 0.002,0.00586 c 0.105199,0.3063636 0.227342,0.4473956 0.332031,0.5488282 a 0.1250125,0.1250125 0 0 0 0.02539,0.019531 c 0.174056,0.096005 0.32777,0.124531 0.439454,0.1269531 0.05584,0.00121 0.10195,-0.00394 0.132812,-0.00781 0.01543,-0.00194 0.02691,-0.00349 0.03125,-0.00391 a 0.1250125,0.1250125 0 0 0 0.03906,-0.00391 c 0.199272,-0.052996 0.394528,-0.1556742 0.560547,-0.3359375 a 0.1250125,0.1250125 0 0 0 0.01367,-0.019531 c 0.07524,-0.1231152 0.198992,-0.2936893 0.167969,-0.6269532 a 0.1250125,0.1250125 0 0 0 -0.002,-0.017578 L 14.238876,5.5 h 0.265625 v 1.5253906 a 0.1250125,0.1250125 0 1 0 0.25,0 V 5.375 a 0.1250125,0.1250125 0 0 0 -0.125,-0.125 h -0.550782 a 0.1250125,0.1250125 0 0 0 -0.121093,0.15625 l 0.197265,0.7832031 c 0.0242,0.2658989 -0.04389,0.3225562 -0.128906,0.4589843 -0.128372,0.1351595 -0.268582,0.2096741 -0.423828,0.2519532 -7.22e-4,1.074e-4 -0.0032,-7.07e-5 -0.0039,0 -0.01402,0.00136 -0.02594,0.00421 -0.03906,0.00586 -0.02625,0.00329 -0.05695,0.0067 -0.0957,0.00586 -0.07283,-0.00158 -0.177939,-0.024565 -0.304687,-0.089844 -0.09062,-0.08829 -0.169082,-0.1707525 -0.259766,-0.4316406 l -0.002,-0.00586 -0.296875,-1.0429688 A 0.1250125,0.1250125 0 0 0 12.47911,5.25 H 10.582626 C 10.398275,5.237988 10.354262,5.261199 10.111922,5.0800781 10.014432,4.9676169 9.975913,4.8977318 9.963485,4.8496093 9.951675,4.8038783 9.955785,4.7407995 9.955685,4.6484374 10.009195,4.4792916 10.001675,4.3758968 10.121701,4.2167968 10.323015,4.0629429 10.456678,4.0227011 10.598264,4 h 1.03125 a 0.1250125,0.1250125 0 0 0 0.08789,-0.2128907 l -0.498047,-0.4980469 -0.002,-0.00195 C 10.063503,2.1002837 8.6412428,1.5 6.9791096,1.5 Z m 9.1503914,3.75 a 0.1250125,0.1250125 0 0 0 -0.125,0.125 v 0.6503906 a 0.1250125,0.1250125 0 1 0 0.25,0 V 5.5 h 12.798828 v 0.4765624 a 0.1250125,0.1250125 0 1 0 0.25,0 V 5.375 a 0.1250125,0.1250125 0 0 0 -0.125,-0.125 z"
     style="color:#000000;font-style:normal;font-variant:normal;font-weight:normal;font-stretch:normal;font-size:medium;line-height:normal;font-family:sans-serif;text-indent:0;text-align:start;text-decoration:none;text-decoration-line:none;text-decoration-style:solid;text-decoration-color:#000000;letter-spacing:normal;word-spacing:normal;text-transform:none;writing-mode:lr-tb;direction:ltr;baseline-shift:baseline;text-anchor:start;white-space:normal;clip-rule:nonzero;display:inline;overflow:visible;visibility:visible;opacity:1;isolation:auto;mix-blend-mode:normal;color-interpolation:sRGB;color-interpolation-filters:linearRGB;solid-color:#000000;solid-opacity:1;fill:#000000;fill-opacity:1;fill-rule:nonzero;stroke:#000000;stroke-width:0.15;stroke-linecap:round;stroke-linejoin:round;stroke-miterlimit:4;stroke-dasharray:none;stroke-dashoffset:0;stroke-opacity:1;color-rendering:auto;image-rendering:auto;shape-rendering:auto;text-rendering:auto;enable-background:accumulate" />
  <path
     style="fill:#ffffff;fill-rule:nonzero;stroke:none;stroke-width:0.1;stroke-miterlimit:4;stroke-dasharray:none"
     id="path4516"
     d="m 31.329261,3.1258725 -3.3,6.8499997 -6.2,-1.65 -2.35,0.95 13.15,3.4999998 0.55,-0.05 0.5,-0.45 q 0.1,-0.3 -0.05,-0.5 l -0.35,-0.4 -3.8,-1 2.85,-5.8999995 -1,-1.35" />
  <path
     id="path4518"
     d="m 31.309188,3 a 0.1250125,0.1250125 0 0 0 -0.01172,0.00391 0.1250125,0.1250125 0 0 0 -0.01172,0.00391 0.1250125,0.1250125 0 0 0 -0.01172,0.00391 0.1250125,0.1250125 0 0 0 -0.02148,0.013672 0.1250125,0.1250125 0 0 0 -0.0098,0.00781 0.1250125,0.1250125 0 0 0 0,0.00195 0.1250125,0.1250125 0 0 0 -0.01563,0.017578 0.1250125,0.1250125 0 0 0 -0.01758,0.033203 0.1250125,0.1250125 0 0 0 -0.0039,0.011719 l -3.244106,6.7304693 -6.09961,-1.623047 a 0.1250125,0.1250125 0 0 0 -0.08008,0.00586 l -2.349609,0.949219 a 0.1250125,0.1250125 0 0 0 0.01563,0.236328 l 13.148438,3.4999998 a 0.1250125,0.1250125 0 0 0 0.01953,0.0039 c 0.386103,0.03984 0.4745,-0.02997 0.58789,-0.05273 a 0.1250125,0.1250125 0 0 0 0.01758,-0.0039 c 0.176583,-0.06451 0.297505,-0.205052 0.458984,-0.376953 a 0.1250125,0.1250125 0 0 0 0.002,-0.0019 c 0.166859,-0.184637 0.197317,-0.445147 0.105419,-0.748055 a 0.1250125,0.1250125 0 0 0 -0.0039,-0.0098 c -0.107281,-0.271127 -0.3319,-0.390054 -0.453132,-0.445309 a 0.1250125,0.1250125 0 0 0 -0.01953,-0.0059 L 29.656844,10.294922 32.442001,4.5292968 A 0.1250125,0.1250125 0 0 0 32.430281,4.4023437 L 31.440047,3.0625 l -0.002,-0.00195 a 0.1250125,0.1250125 0 0 0 -0.01563,-0.019531 0.1250125,0.1250125 0 0 0 -0.0293,-0.023437 0.1250125,0.1250125 0 0 0 -0.0098,-0.00586 0.1250125,0.1250125 0 0 0 -0.002,0 0.1250125,0.1250125 0 0 0 -0.03516,-0.011719 0.1250125,0.1250125 0 0 0 -0.02539,0 0.1250125,0.1250125 0 0 0 -0.01172,0 z m 0.04297,0.3671874 0.832031,1.1230469 -2.818359,5.8320307 a 0.1250125,0.1250125 0 0 0 0.08203,0.173829 l 3.779297,0.99414 0.002,0.002 c 0.106985,0.04888 0.24705,0.12302 0.320312,0.304688 0.07366,0.249352 0.0505,0.385809 -0.05273,0.5 -0.158274,0.168404 -0.26194,0.273225 -0.353516,0.308593 -0.156306,0.03365 -0.162386,0.07915 -0.492187,0.04688 l -12.775442,-3.4003918 1.960938,-0.794922 6.160156,1.6386718 a 0.1250125,0.1250125 0 0 0 0.144531,-0.06641 z"
     style="color:#000000;font-style:normal;font-variant:normal;font-weight:normal;font-stretch:normal;font-size:medium;line-height:normal;font-family:sans-serif;text-indent:0;text-align:start;text-decoration:none;text-decoration-line:none;text-decoration-style:solid;text-decoration-color:#000000;letter-spacing:normal;word-spacing:normal;text-transform:none;writing-mode:lr-tb;direction:ltr;baseline-shift:baseline;text-anchor:start;white-space:normal;clip-rule:nonzero;display:inline;overflow:visible;visibility:visible;opacity:1;isolation:auto;mix-blend-mode:normal;color-interpolation:sRGB;color-interpolation-filters:linearRGB;solid-color:#000000;solid-opacity:1;fill:#000000;fill-opacity:1;fill-rule:nonzero;stroke:#000000;stroke-width:0.15;stroke-linecap:round;stroke-linejoin:round;stroke-miterlimit:4;stroke-dasharray:none;stroke-dashoffset:0;stroke-opacity:1;color-rendering:auto;image-rendering:auto;shape-rendering:auto;text-rendering:auto;enable-background:accumulate" />
  <path
     style="display:inline;fill:#ffffff;fill-rule:nonzero;stroke:none;stroke-width:0.4;stroke-miterlimit:4;stroke-dasharray:none;stroke-opacity:1"
     id="path4520"
     d="m 22.129261,6.6758725 -6.55,-1.75 0.7,1.75 6.05,1.6499997 -0.2,-1.6499997" />
  <path
     id="path4522"
     d="m 15.574813,4.8007812 a 0.1250125,0.1250125 0 0 0 -0.111328,0.171875 l 0.699219,1.75 a 0.1250125,0.1250125 0 0 0 0.08398,0.074219 l 6.048832,1.65039 a 0.12556356,0.12556356 0 1 0 0.06641,-0.242187 L 16.371688,6.5722656 15.787704,5.1113281 22.096298,6.796875 a 0.12530864,0.12530864 0 0 0 0.06445,-0.2421876 l -6.548829,-1.75 a 0.1250125,0.1250125 0 0 0 -0.03711,-0.00391 z"
     style="color:#000000;font-style:normal;font-variant:normal;font-weight:normal;font-stretch:normal;font-size:medium;line-height:normal;font-family:sans-serif;text-indent:0;text-align:start;text-decoration:none;text-decoration-line:none;text-decoration-style:solid;text-decoration-color:#000000;letter-spacing:normal;word-spacing:normal;text-transform:none;writing-mode:lr-tb;direction:ltr;baseline-shift:baseline;text-anchor:start;white-space:normal;clip-rule:nonzero;display:inline;overflow:visible;visibility:visible;opacity:1;isolation:auto;mix-blend-mode:normal;color-interpolation:sRGB;color-interpolation-filters:linearRGB;solid-color:#000000;solid-opacity:1;fill:#000000;fill-opacity:1;fill-rule:nonzero;stroke:#000000;stroke-width:0.15000001;stroke-linecap:round;stroke-linejoin:round;stroke-miterlimit:4;stroke-dasharray:none;stroke-dashoffset:0;stroke-opacity:1;color-rendering:auto;image-rendering:auto;shape-rendering:auto;text-rendering:auto;enable-background:accumulate" />
  <path
     style="display:inline;fill:#ffffff;fill-rule:nonzero;stroke:none;stroke-width:0.40000001;stroke-miterlimit:4;stroke-dasharray:none;stroke-opacity:1"
     id="path4524"
     d="m 24.829261,6.6258725 -6.3,1.8499997 -0.15,-0.5999997 -1.3,0.9499997 v 0.1 l -7.3,2.1499998 q -2.4000007,0.65 -4.5000007,-0.5 -2.1,-1.1499998 -2.8,-3.4999995 -0.6,-2.05 0.2,-3.9 l -1.95,1.35 q -0.15,1.45 0.3,3 0.85,2.8999995 3.55,4.3499995 2.65,1.45 5.6000007,0.65 l 13.45,-3.9499998 1.2,-1.9499997" />
  <path
     id="path4526"
     d="m 2.6763752,3.0507812 a 0.1250125,0.1250125 0 0 0 -0.068359,0.021484 L 0.6587971,4.4238281 a 0.1250125,0.1250125 0 0 0 -0.054687,0.089844 c -0.1017861,0.9839272 7.403e-4,1.9999472 0.304687,3.0468747 0.5751331,1.9622184 1.7855435,3.4452672 3.6113281,4.4257812 1.7922936,0.980689 3.6972018,1.200957 5.6914068,0.660156 a 0.1250125,0.1250125 0 0 0 0.0039,0 L 23.664657,8.6953122 a 0.1251562,0.1251562 0 1 0 -0.07031,-0.240234 L 10.147079,12.404297 C 8.2079491,12.930162 6.3803056,12.718269 4.6392658,11.765625 2.8650504,10.812805 1.7072317,9.3946822 1.1490315,7.4902343 0.8580802,6.4880688 0.7700896,5.5240316 0.8599689,4.5898437 L 2.484969,3.4628906 c -0.4220438,1.1620569 -0.4968291,2.3780216 -0.125,3.6484375 0.4748372,1.5940961 1.4330455,2.7931331 2.859375,3.5742189 1.4262976,0.781067 2.9649631,0.952319 4.591797,0.511718 a 0.1250125,0.1250125 0 0 0 0.0039,-0.0019 L 17.11387,9.0449252 a 0.1250125,0.1250125 0 0 0 0.08984,-0.119141 v -0.037112 l 1.09961,-0.802735 0.105469,0.419922 a 0.1250125,0.1250125 0 0 0 0.15625,0.089844 L 24.863876,6.7460937 A 0.12515639,0.12515639 0 0 0 24.793563,6.5058593 L 18.619735,8.3183592 18.500594,7.8457031 a 0.1250125,0.1250125 0 0 0 -0.195312,-0.070312 l -1.298828,0.9492186 a 0.1250125,0.1250125 0 0 0 -0.05273,0.101563 v 0.00586 L 9.744735,10.955078 C 8.1723328,11.380462 6.7116028,11.218742 5.3384846,10.466797 3.9648141,9.7145482 3.0567463,8.5802522 2.5982502,7.0410156 h 0.00195 C 2.2072579,5.6984519 2.2714243,4.4320544 2.7935627,3.2246093 A 0.1250125,0.1250125 0 0 0 2.6763752,3.0507812 Z"
     style="color:#000000;font-style:normal;font-variant:normal;font-weight:normal;font-stretch:normal;font-size:medium;line-height:normal;font-family:sans-serif;text-indent:0;text-align:start;text-decoration:none;text-decoration-line:none;text-decoration-style:solid;text-decoration-color:#000000;letter-spacing:normal;word-spacing:normal;text-transform:none;writing-mode:lr-tb;direction:ltr;baseline-shift:baseline;text-anchor:start;white-space:normal;clip-rule:nonzero;display:inline;overflow:visible;visibility:visible;opacity:1;isolation:auto;mix-blend-mode:normal;color-interpolation:sRGB;color-interpolation-filters:linearRGB;solid-color:#000000;solid-opacity:1;fill:#000000;fill-opacity:1;fill-rule:nonzero;stroke:#000000;stroke-width:0.15;stroke-linecap:round;stroke-linejoin:round;stroke-miterlimit:4;stroke-dasharray:none;stroke-dashoffset:0;stroke-opacity:1;color-rendering:auto;image-rendering:auto;shape-rendering:auto;text-rendering:auto;enable-background:accumulate" />
</svg>
