<?xml version="1.0" encoding="UTF-8" standalone="no"?>
<svg
   xmlns:dc="http://purl.org/dc/elements/1.1/"
   xmlns:cc="http://creativecommons.org/ns#"
   xmlns:rdf="http://www.w3.org/1999/02/22-rdf-syntax-ns#"
   xmlns:svg="http://www.w3.org/2000/svg"
   xmlns="http://www.w3.org/2000/svg"
   viewBox="0 0 35.687904 14.761391"
   height="14.761392"
   width="35.687904"
   id="svg3377"
   version="1.1">
  <defs
     id="defs9742" />
  <metadata
     id="metadata3390">
    <rdf:RDF>
      <cc:Work
         rdf:about="">
        <dc:format>image/svg+xml</dc:format>
        <dc:type
           rdf:resource="http://purl.org/dc/dcmitype/StillImage" />
        <dc:title></dc:title>
      </cc:Work>
    </rdf:RDF>
  </metadata>
  <path
     id="path4136"
     d="M 0.48437496,14.591789 C 0.24962902,14.467737 0.125,14.28526 0.125,14.065604 c 0,-0.236797 0.1975728,-0.525378 0.41609683,-0.607765 0.0587282,-0.02214 0.76044837,-0.03317 2.11093747,-0.03317 1.531751,0 2.0320713,-0.0091 2.0604657,-0.0375 C 4.741286,13.358386 4.75,12.396028 4.75,9.2457737 V 5.1418756 L 4.6698406,5.1113991 C 4.6212296,5.0929172 3.8863593,5.0806525 2.8026531,5.0802362 1.1164309,5.0795884 1.0082705,5.0762106 0.88524861,5.0203547 0.72280811,4.9466016 0.6512718,4.8400766 0.62267664,4.6293578 0.57768034,4.2977784 0.66399414,4.0947803 0.90901821,3.9559225 l 0.13785679,-0.078125 10.452902,-0.015625 10.452902,-0.015625 0.630382,-0.78125 c 0.807436,-1.0006792 1.18294,-1.3576492 1.968363,-1.8712111 1.558268,-1.01889903 3.70051,-1.33600783 5.639596,-0.83481023 1.212818,0.3134784 2.285268,0.94568023 3.263224,1.92364793 1.189625,1.18964 1.848597,2.5079053 2.060075,4.1211459 0.06332,0.4829953 0.06339,1.4631584 1.44e-4,1.9486894 -0.09495,0.72896 -0.271597,1.3715731 -0.546885,1.9894666 -0.679993,1.526278 -1.898843,2.799277 -3.397022,3.547939 -0.654266,0.326945 -1.340846,0.539385 -2.209764,0.68374 -0.289443,0.04809 -1.42366,0.05275 -14.548292,0.05979 -12.942459,0.0069 -14.24288382,0.0031 -14.32812504,-0.0419 z M 19.263393,13.375565 c 0.04414,-0.04414 0.04911,-0.461148 0.04911,-4.1232275 V 5.1782166 l -0.06945,-0.048647 c -0.06232,-0.043653 -0.740812,-0.048647 -6.609375,-0.048647 -6.4982555,0 -6.5403202,3.981e-4 -6.6024221,0.0625 -0.061859,0.061859 -0.0625,0.1041665 -0.0625,4.1227678 0,3.6494857 0.00497,4.0652367 0.049107,4.1093747 0.044332,0.04433 0.6883794,0.04911 6.6227681,0.04911 5.934389,0 6.578436,-0.0048 6.622768,-0.04911 z m 9.598367,0.01589 c 2.874243,-0.279691 5.035462,-2.317157 5.434218,-5.1230566 0.0545,-0.3835291 0.06252,-1.2734047 0.01492,-1.6570447 C 34.089789,4.8292293 33.133136,3.3168412 31.578126,2.2910834 29.90524,1.1875679 27.531694,1.0465093 25.695717,1.9414951 c -0.63086,0.3075259 -1.199782,0.7399202 -1.859778,1.4134754 -0.463166,0.472681 -0.442107,0.5072019 0.309399,0.5072019 0.779779,0 0.934789,0.046337 1.081412,0.3232666 0.05529,0.1044303 0.06889,0.1827421 0.06944,0.39993 0.0012,0.4798718 -0.04436,0.4955534 -1.440452,0.4955534 -0.554356,0 -1.041534,0.01278 -1.082619,0.028401 -0.0653,0.024828 -0.09534,0.1003897 -0.238744,0.6006188 -0.240522,0.8389929 -0.31419,0.966586 -0.595045,1.030612 -0.15151,0.03454 -0.515159,-0.028822 -0.637523,-0.1110816 -0.199341,-0.1340075 -0.209396,-0.3272587 -0.04999,-0.9607847 0.110237,-0.4381097 0.113678,-0.5114278 0.0262,-0.5582434 -0.100248,-0.053651 -0.678339,-0.027033 -0.716223,0.032978 -0.04721,0.074789 -0.04036,8.1964345 0.007,8.2437495 0.05009,0.0501 7.781194,0.05409 8.29301,0.0043 z"
     style="fill:#ffffff;fill-opacity:1;fill-rule:nonzero;stroke:#000000;stroke-width:0.4;stroke-linecap:square;stroke-linejoin:round;stroke-miterlimit:4;stroke-dasharray:none;stroke-opacity:1" />
</svg>
